<?xml version="1.0" encoding="UTF-8"?>
<svg id="Layer_1" data-name="Layer 1" xmlns="http://www.w3.org/2000/svg" version="1.1" viewBox="0 0 115 35">
  <defs>
    <style>
      .cls-1 {
        fill: #000;
        stroke-width: 0px;
      }
    </style>
  </defs>
  <path id="Logo" class="cls-1" d="M.6,14.8c0-.1,0-.3,0-.5,2-3.4,3.9-6.8,5.9-10.2.2-.4.5-.6,1-.6h6.9c.5,0,.8.2,1,.6,2.3,4,4.6,8.1,6.9,12.2.3.5.8.9,1.4.9.7,0,1.4,0,2.1,0-2.6-4.5-5.1-9-7.7-13.5,2.4-.1,4.8,0,7.3-.2.7,0,1.4,0,2.1,0,.4.2.6.5.8.8.5.9,1,1.8,1.5,2.7,1.3,2.4,2.6,4.8,4,7.1.2.4.2.9,0,1.3-1,1.8-2,3.5-3,5.3-.4.7-1,.6-1.6.6-4.5,0-9,0-13.5,0-.6,0-1,.3-1.2.8,0,.1-.1.2-.2.4-.3.5-.5,1.1-.8,1.7h15.3c-1.5,2.8-3.2,5.5-4.8,8.3-.2.4-.6.5-1,.5-3.6,0-7.3,0-10.9,0-.5,0-.9-.2-1.1-.7-1.2-2.1-2.4-4.2-3.5-6.2-.2-.4-.2-.8,0-1.2,1.8-2.9,3.6-5.9,5.3-8.8.6-1,1.2-2,1.8-3,.3-.5.6-1.1.3-1.8-.3-.7-.7-1.3-1.1-2-2.7,4.5-5.4,9-8.2,13.6-1.7-2.7-3.2-5.5-4.8-8.2Z"/>
  <g id="MULTIXION">
    <path class="cls-1" d="M45.4,10.6v9c0,.4-.2.4-.4.4h-1.4c-.3,0-.4,0-.4-.4v-5.1l-1.5,2.6c0,.1-.2.3-.4.3h-.8c-.2,0-.4-.2-.4-.3l-1.5-2.6v5.1c0,.4-.2.4-.4.4h-1.5c-.3,0-.4,0-.4-.4v-9c0-.3,0-.4.4-.4h1.5c.5,0,.6.3.7.5l2.1,3.7,2.1-3.7c.1-.2.2-.5.7-.5h1.4c.3,0,.4.2.4.4Z"/>
    <path class="cls-1" d="M55.5,10.6v6.4c0,2.4-2.2,3.2-4,3.2s-4-.9-4-3.2v-6.4c0-.4.2-.4.4-.4h1.5c.3,0,.4,0,.4.4v6.1c0,1,.6,1.5,1.6,1.5s1.6-.5,1.6-1.5v-6.1c0-.4.2-.4.4-.4h1.5c.3,0,.5,0,.5.4Z"/>
    <path class="cls-1" d="M64.7,18.4v1.2c0,.3,0,.4-.4.4h-6.2c-.4,0-.4-.2-.4-.4v-9c0-.4.2-.4.4-.4h1.5c.3,0,.4,0,.4.4v7.3h4.3c.4,0,.4.2.4.4Z"/>
    <path class="cls-1" d="M72.2,10.6v1.2c0,.3,0,.4-.4.4h-2.3v7.3c0,.4-.2.4-.4.4h-1.5c-.3,0-.4,0-.4-.4v-7.3h-2.3c-.4,0-.4-.2-.4-.4v-1.2c0-.3,0-.4.4-.4h7c.4,0,.4.2.4.4Z"/>
    <path class="cls-1" d="M78.5,18.5v1.2c0,.3,0,.4-.4.4h-4.3c-.4,0-.4-.2-.4-.4v-1.2c0-.3,0-.4.4-.4h1v-5.8h-.9c-.4,0-.4-.2-.4-.4v-1.2c0-.3,0-.4.4-.4h4.2c.4,0,.4.2.4.4v1.2c0,.3,0,.4-.4.4h-.9v5.7h1c.3,0,.4.2.4.4Z"/>
    <path class="cls-1" d="M87.7,19.6c.1.2,0,.5-.2.5h-1.7c-.3,0-.5,0-.7-.4l-1.5-2.7-1.5,2.7c-.2.4-.3.4-.7.4h-1.7c-.2,0-.3-.3-.2-.5l2.7-4.6-2.7-4.4c0-.2,0-.4.2-.4h1.8c.3,0,.4.1.6.4l1.5,2.4,1.5-2.4c.2-.3.3-.4.6-.4h1.8c.3,0,.3.3.2.4l-2.7,4.4,2.7,4.6Z"/>
    <path class="cls-1" d="M93.9,18.5v1.2c0,.3,0,.4-.4.4h-4.3c-.4,0-.4-.2-.4-.4v-1.2c0-.3,0-.4.4-.4h1v-5.8h-.9c-.4,0-.4-.2-.4-.4v-1.2c0-.3,0-.4.4-.4h4.2c.4,0,.4.2.4.4v1.2c0,.3,0,.4-.4.4h-.9v5.7h1c.3,0,.4.2.4.4Z"/>
    <path class="cls-1" d="M103.6,16.9c0,2.4-2.3,3.4-4,3.4s-4-1-4-3.4v-3.5c0-2.4,2.2-3.4,4-3.4s4,1,4,3.4v3.5ZM101.3,13.6c0-1-.7-1.5-1.7-1.5s-1.7.6-1.7,1.5v3.1c0,1,.7,1.5,1.7,1.5s1.7-.6,1.7-1.5v-3.1Z"/>
    <path class="cls-1" d="M113.6,10.6v9c0,.3,0,.4-.4.4h-1.4c-.4,0-.5-.2-.7-.5l-3.2-5.2v5.2c0,.4-.2.4-.4.4h-1.5c-.3,0-.4,0-.4-.4v-9c0-.3,0-.4.4-.4h1.4c.4,0,.5.2.7.5l3.2,5.1v-5.2c0-.4.2-.4.4-.4h1.4c.3,0,.4,0,.4.4Z"/>
  </g>
  <g>
    <path class="cls-1" d="M36.1,22.4h.5v3.8h-.5v-3.8Z"/>
    <path class="cls-1" d="M37.7,22.4h.5l1.4,2.4.4.8h0c0-.4,0-.8,0-1.2v-2h.5v3.8h-.5l-1.4-2.4-.4-.8h0c0,.4,0,.8,0,1.2v2h-.5v-3.8Z"/>
    <path class="cls-1" d="M41.4,22.4h.5l1.4,2.4.4.8h0c0-.4,0-.8,0-1.2v-2h.5v3.8h-.5l-1.4-2.4-.4-.8h0c0,.4,0,.8,0,1.2v2h-.5v-3.8Z"/>
    <path class="cls-1" d="M44.9,24.2c0-1.2.7-1.9,1.6-1.9s1.6.7,1.6,1.9-.7,2-1.6,2-1.6-.8-1.6-2ZM47.7,24.2c0-.9-.4-1.5-1.1-1.5s-1.1.6-1.1,1.5.4,1.6,1.1,1.6c.7,0,1.1-.6,1.1-1.6Z"/>
    <path class="cls-1" d="M48.4,22.4h.5l.6,2c.1.4.2.8.4,1.3h0c.1-.4.2-.8.4-1.3l.6-2h.5l-1.2,3.8h-.6l-1.2-3.8Z"/>
    <path class="cls-1" d="M52.6,22.4h.5l1.3,3.8h-.5l-.7-2.1c-.1-.4-.3-.8-.4-1.3h0c-.1.4-.2.9-.4,1.3l-.7,2.1h-.5l1.3-3.8ZM52,24.6h1.7v.4h-1.7v-.4Z"/>
    <path class="cls-1" d="M55.5,22.8h-1.1v-.4h2.8v.4h-1.1v3.4h-.5v-3.4Z"/>
    <path class="cls-1" d="M57.8,22.4h2.2v.4h-1.7v1.2h1.4v.4h-1.4v1.4h1.8v.4h-2.2v-3.8Z"/>
    <path class="cls-1" d="M60.6,26.8c.3-.1.5-.4.5-.7v-.4c0,0,.2.3.2.3,0,0-.1.1-.2.1-.2,0-.3-.1-.3-.3s.2-.3.4-.3.4.2.4.6c0,.5-.3.9-.8,1.1v-.3Z"/>
    <path class="cls-1" d="M63.5,22.4h.5v3.8h-.5v-3.8Z"/>
    <path class="cls-1" d="M65,22.4h.5l1.4,2.4.4.8h0c0-.4,0-.8,0-1.2v-2h.5v3.8h-.5l-1.4-2.4-.4-.8h0c0,.4,0,.8,0,1.2v2h-.5v-3.8Z"/>
    <path class="cls-1" d="M69.5,22.8h-1.1v-.4h2.8v.4h-1.1v3.4h-.5v-3.4Z"/>
    <path class="cls-1" d="M71.9,22.4h2.2v.4h-1.7v1.2h1.4v.4h-1.4v1.4h1.8v.4h-2.2v-3.8h0Z"/>
    <path class="cls-1" d="M74.7,24.3c0-1.2.7-2,1.7-2s.9.2,1.1.5l-.3.3c-.2-.2-.4-.4-.8-.4-.8,0-1.3.6-1.3,1.5s.5,1.5,1.3,1.5.5,0,.7-.2v-1h-.8v-.4h1.2v1.6c-.2.3-.7.4-1.2.4-1,0-1.7-.7-1.7-2Z"/>
    <path class="cls-1" d="M78.5,22.4h1.2c.8,0,1.3.3,1.3,1.1s-.6,1.1-1.3,1.1h-.7v1.6h-.5v-3.8ZM79.6,24.2c.6,0,.9-.2.9-.7s-.3-.7-.9-.7h-.6v1.4h.6ZM79.6,24.4l.4-.2,1.2,2h-.5l-1-1.7Z"/>
    <path class="cls-1" d="M82.5,22.3h.5l1.3,3.8h-.5l-.7-2.1c-.1-.4-.3-.8-.4-1.3h0c-.1.4-.2.9-.4,1.3l-.7,2.1h-.5l1.3-3.8ZM81.9,24.6h1.7v.4h-1.7v-.4Z"/>
    <path class="cls-1" d="M85.5,22.8h-1.1v-.4h2.8v.4h-1.1v3.4h-.5v-3.4Z"/>
    <path class="cls-1" d="M87.8,22.4h2.2v.4h-1.7v1.2h1.4v.4h-1.4v1.4h1.8v.4h-2.2v-3.8h0Z"/>
    <path class="cls-1" d="M90.6,26.8c.3-.1.5-.4.5-.7v-.4c0,0,.2.3.2.3,0,0-.1.1-.2.1-.2,0-.3-.1-.3-.3s.2-.3.4-.3.4.2.4.6c0,.5-.3.9-.8,1.1v-.3Z"/>
    <path class="cls-1" d="M93.4,22.4h.5v3.8h-.5v-3.8Z"/>
    <path class="cls-1" d="M95,22.4h.5l1.4,2.4.4.8h0c0-.4,0-.8,0-1.2v-2h.5v3.8h-.5l-1.4-2.4-.4-.8h0c0,.4,0,.8,0,1.2v2h-.5v-3.8Z"/>
    <path class="cls-1" d="M98.4,25.6l.3-.3c.3.3.7.5,1,.5s.8-.2.8-.6-.3-.5-.6-.7l-.5-.2c-.4-.2-.8-.4-.8-1s.5-1,1.2-1,.8.2,1.1.5l-.3.3c-.2-.2-.5-.4-.9-.4s-.7.2-.7.6.3.5.6.6l.5.2c.4.2.8.4.8,1s-.5,1.1-1.3,1.1c-.5,0-1-.2-1.3-.6Z"/>
    <path class="cls-1" d="M101.8,22.4h1.1c.8,0,1.4.3,1.4,1.1s-.6,1.2-1.4,1.2h-.6v1.5h-.5v-3.8h0ZM102.9,24.3c.7,0,1-.2,1-.8s-.3-.7-1-.7h-.5v1.5h.6Z"/>
    <path class="cls-1" d="M105.1,22.4h.5v3.8h-.5v-3.8Z"/>
    <path class="cls-1" d="M106.6,22.4h1.2c.8,0,1.3.3,1.3,1.1s-.6,1.1-1.3,1.1h-.7v1.6h-.5v-3.8ZM107.8,24.2c.6,0,.9-.2.9-.7s-.3-.7-.9-.7h-.6v1.4h.6ZM107.7,24.4l.4-.2,1.2,2h-.5l-1-1.7Z"/>
    <path class="cls-1" d="M110,22.4h2.2v.4h-1.7v1.2h1.4v.4h-1.4v1.4h1.8v.4h-2.2v-3.8h0Z"/>
    <path class="cls-1" d="M112.9,25.9c0-.2.2-.4.3-.4s.3.1.3.4-.2.4-.3.4-.3-.1-.3-.4Z"/>
  </g>
</svg>