<?xml version="1.0" encoding="UTF-8"?>
<svg width="115" height="35"  id="Layer_2" data-name="Layer 2" xmlns="http://www.w3.org/2000/svg" viewBox="0 0 828.74 179.55">
  <defs>
    <style>
      .cls-1 {
        fill: #FFF;
      }
    </style>
  </defs>
  <g id="Layer_1-2" data-name="Layer 1">
    <g>
      <path id="Logo" class="cls-1" d="m0,68.94c.01-.85.02-1.69.11-2.78C11.98,45.42,23.83,25.07,35.73,4.4c1.33-2.3,3.17-3.75,5.92-3.75,13.83-.01,27.65,0,41.48-.02,2.82,0,4.82,1.4,6.15,3.75,13.94,24.49,27.83,48.99,41.64,73.56,1.91,3.33,4.73,5.3,8.74,5.18,4.44-.17,8.52-.15,13.02-.42-15.57-27.31-30.93-54.26-46.57-81.71,14.83-.87,29.26-.22,44.03-.98,4.29.02,8.4,0,12.59.08,2.44,1.05,3.84,2.88,5.01,5.08,2.99,5.58,6.14,11.07,9.21,16.61,7.99,14.43,15.99,28.86,23.96,43.31,1.48,2.69,1.44,5.45-.08,8.09-6.09,10.63-12.22,21.23-18.35,31.84-2.19,4.1-5.91,3.62-9.92,3.54-27.29-.03-54.59-.24-81.87-.19-3.46.24-6.14,1.67-7.5,5.06-.3.74-.69,1.45-1.04,2.17-1.59,3.3-3.19,6.6-4.97,10.28h92.53c-8.94,17.23-19.28,33.46-28.81,50.35-1.35,2.31-3.44,3.3-6.18,3.3-22.11-.04-44.21-.07-66.32.02-3.2.01-5.18-1.3-6.69-3.96-7.1-12.59-14.25-25.15-21.4-37.72-1.41-2.48-1.36-4.93.1-7.34,10.75-17.74,21.51-35.48,32.29-53.21,3.71-6.1,7.53-12.14,11.22-18.26,2-3.32,3.36-6.92,1.56-10.71-1.89-3.98-4.18-7.77-6.51-12.04-16.58,27.41-33.04,54.62-49.64,82.07C19.06,102.17,9.86,85.41,0,68.94Z"/>
      <g id="TEXT">
        <g id="MULTIXION">
          <path class="cls-1" d="m305,28v69.36c0,2.66-1.27,3.35-3.35,3.35h-11.08c-2.08,0-3.35-.69-3.35-3.35v-39.12l-11.54,20.2c-.58.92-1.62,2.42-3.35,2.42h-5.77c-1.73,0-2.65-1.5-3.23-2.42l-11.66-20.2v39.12c0,2.66-1.27,3.35-3.35,3.35h-11.43c-2.08,0-3.35-.69-3.35-3.35V28c0-2.08.69-3.35,3.35-3.35h11.43c3.92,0,4.39,2.54,5.31,3.92l15.81,28.39,15.93-28.39c.81-1.38,1.38-3.92,5.19-3.92h11.08c2.65,0,3.35,1.27,3.35,3.35Z"/>
          <path class="cls-1" d="m382.21,28.12v49.39c0,18.12-16.85,24.93-30.58,24.93s-30.47-6.81-30.47-24.93V28.12c0-2.65,1.27-3.35,3.35-3.35h11.43c2.08,0,3.35.69,3.35,3.35v46.86c0,7.27,4.73,11.43,12.35,11.43s12.46-4.15,12.46-11.43V28.12c0-2.65,1.27-3.35,3.35-3.35h11.43c2.08,0,3.35.69,3.35,3.35Z"/>
          <path class="cls-1" d="m453.08,87.9v9.46c0,2.08-.69,3.35-3.35,3.35h-48.01c-2.65,0-3.35-1.27-3.35-3.35V28.12c0-2.65,1.27-3.35,3.35-3.35h11.43c2.08,0,3.35.69,3.35,3.35v56.43h33.24c2.65,0,3.35,1.27,3.35,3.35Z"/>
          <path class="cls-1" d="m511.01,28.12v9.58c0,2.08-.69,3.35-3.35,3.35h-17.66v56.32c0,2.66-1.27,3.35-3.35,3.35h-11.43c-2.08,0-3.35-.69-3.35-3.35v-56.32h-17.77c-2.65,0-3.35-1.27-3.35-3.35v-9.58c0-2.08.69-3.35,3.35-3.35h53.55c2.65,0,3.35,1.27,3.35,3.35Z"/>
          <path class="cls-1" d="m558.91,88.25v9.12c0,2.08-.69,3.35-3.35,3.35h-32.66c-2.65,0-3.35-1.27-3.35-3.35v-9.12c0-2.08.69-3.35,3.35-3.35h7.27v-44.09h-7.04c-2.65,0-3.35-1.27-3.35-3.35v-9.35c0-2.08.69-3.35,3.35-3.35h32.08c2.66,0,3.35,1.27,3.35,3.35v9.35c0,2.08-.69,3.35-3.35,3.35h-6.92v44.09h7.27c2.65,0,3.35,1.27,3.35,3.35Z"/>
          <path class="cls-1" d="m630.23,97.13c.92,1.39.35,3.58-1.39,3.58h-13.16c-2.54,0-3.46-.23-5.08-3.23l-11.43-20.54-11.54,20.54c-1.5,3-2.54,3.23-5.08,3.23h-13.16c-1.73,0-2.31-2.19-1.39-3.58l20.54-35.32-20.89-33.81c-.69-1.27-.23-3.23,1.73-3.23h13.62c2.19,0,3.12.92,4.62,3.35l11.54,18.58,11.43-18.58c1.62-2.42,2.42-3.35,4.73-3.35h13.5c1.96,0,2.54,1.96,1.73,3.23l-20.77,33.81,20.43,35.32Z"/>
          <path class="cls-1" d="m677.78,88.25v9.12c0,2.08-.69,3.35-3.35,3.35h-32.66c-2.65,0-3.35-1.27-3.35-3.35v-9.12c0-2.08.69-3.35,3.35-3.35h7.27v-44.09h-7.04c-2.65,0-3.35-1.27-3.35-3.35v-9.35c0-2.08.69-3.35,3.35-3.35h32.08c2.66,0,3.35,1.27,3.35,3.35v9.35c0,2.08-.69,3.35-3.35,3.35h-6.92v44.09h7.27c2.65,0,3.35,1.27,3.35,3.35Z"/>
          <path class="cls-1" d="m752.34,76.36c0,18.23-17.31,26.08-31.04,26.08s-30.81-7.85-30.81-26.08v-27.24c0-18.23,17.08-26.08,30.81-26.08s31.04,7.85,31.04,26.08v27.24Zm-18.12-25.62c0-7.39-5.31-11.66-12.93-11.66s-12.81,4.27-12.81,11.66v24c0,7.39,5.31,11.66,12.81,11.66s12.93-4.27,12.93-11.66v-24Z"/>
          <path class="cls-1" d="m828.74,28.12v69.24c0,2.08-.69,3.35-3.35,3.35h-10.5c-2.89,0-3.69-1.62-5.19-3.92l-24.47-39.58v40.16c0,2.66-1.27,3.35-3.35,3.35h-11.43c-2.08,0-3.35-.69-3.35-3.35V28.12c0-2.08.69-3.35,3.35-3.35h10.85c2.89,0,3.69,1.62,5.19,3.92l24.47,39.47V28.12c0-2.65,1.27-3.35,3.35-3.35h11.08c2.08,0,3.35.69,3.35,3.35Z"/>
        </g>
        <g>
          <path class="cls-1" d="m260.43,123.17h3.37v26.52h-3.37v-26.52Z"/>
          <path class="cls-1" d="m271.06,123.17h3.48l9.6,16.67,2.86,5.49h.16c-.17-2.67-.43-5.66-.43-8.44v-13.72h3.2v26.52h-3.48l-9.6-16.69-2.86-5.47h-.16c.17,2.68.43,5.51.43,8.28v13.88h-3.2v-26.52Z"/>
          <path class="cls-1" d="m297.19,123.17h3.48l9.6,16.67,2.86,5.49h.16c-.17-2.67-.43-5.66-.43-8.44v-13.72h3.2v26.52h-3.48l-9.6-16.69-2.86-5.47h-.16c.17,2.68.43,5.51.43,8.28v13.88h-3.2v-26.52Z"/>
          <path class="cls-1" d="m321.79,136.33c0-8.49,4.67-13.65,11.33-13.65s11.33,5.17,11.33,13.65-4.67,13.84-11.33,13.84-11.33-5.35-11.33-13.84Zm19.18,0c0-6.61-3.11-10.68-7.85-10.68s-7.85,4.08-7.85,10.68,3.11,10.87,7.85,10.87,7.85-4.27,7.85-10.87Z"/>
          <path class="cls-1" d="m346.13,123.17h3.57l4.28,14.33c.93,3.12,1.57,5.65,2.55,8.76h.16c.98-3.11,1.64-5.64,2.55-8.76l4.25-14.33h3.43l-8.42,26.52h-3.91l-8.47-26.52Z"/>
          <path class="cls-1" d="m375.44,123.17h3.81l8.97,26.52h-3.57l-4.62-14.81c-.95-2.96-1.8-5.88-2.65-8.94h-.16c-.82,3.08-1.67,5.97-2.62,8.94l-4.67,14.81h-3.43l8.97-26.52Zm-4.25,15.75h12.21v2.69h-12.21v-2.69Z"/>
          <path class="cls-1" d="m395.97,126.03h-8.02v-2.86h19.42v2.86h-8.02v23.66h-3.37v-23.66Z"/>
          <path class="cls-1" d="m412.19,123.17h15.28v2.86h-11.91v8.31h10.05v2.86h-10.05v9.64h12.31v2.86h-15.69v-26.52Z"/>
          <path class="cls-1" d="m431.73,154.53c2.28-1,3.65-2.79,3.64-5.01l-.36-2.98,1.63,2.43c-.44.54-1.05.69-1.68.69-1.28,0-2.41-.81-2.41-2.32s1.14-2.32,2.47-2.32c1.76,0,2.82,1.47,2.82,3.9,0,3.49-2.03,6.21-5.29,7.56l-.81-1.95Z"/>
          <path class="cls-1" d="m451.68,123.17h3.37v26.52h-3.37v-26.52Z"/>
          <path class="cls-1" d="m462.2,123.17h3.49l9.6,16.67,2.86,5.49h.16c-.17-2.67-.43-5.66-.43-8.44v-13.72h3.2v26.52h-3.49l-9.6-16.69-2.86-5.47h-.16c.17,2.68.43,5.51.43,8.28v13.88h-3.2v-26.52Z"/>
          <path class="cls-1" d="m494,126.03h-8.02v-2.86h19.42v2.86h-8.02v23.66h-3.37v-23.66Z"/>
          <path class="cls-1" d="m510.22,123.18h15.28v2.86h-11.91v8.31h10.05v2.86h-10.05v9.64h12.31v2.86h-15.69v-26.52Z"/>
          <path class="cls-1" d="m529.75,136.45c0-8.55,5.14-13.77,12.17-13.77,3.67,0,6.09,1.67,7.65,3.27l-1.85,2.2c-1.34-1.39-3.05-2.5-5.71-2.5-5.34,0-8.78,4.1-8.78,10.71s3.15,10.84,8.81,10.84c1.9,0,3.73-.57,4.78-1.56v-6.91h-5.61v-2.8h8.69v11.15c-1.71,1.78-4.61,3.08-8.17,3.08-7,0-11.98-5.11-11.98-13.72Z"/>
          <path class="cls-1" d="m556.35,123.18h8.3c5.4,0,9.28,1.94,9.28,7.46s-3.88,7.85-9.28,7.85h-4.93v11.21h-3.37v-26.52Zm7.82,12.57c4.13,0,6.4-1.67,6.4-5.11s-2.27-4.73-6.4-4.73h-4.45v9.83h4.45Zm-.18,1.81l2.64-1.75,8.09,13.88h-3.82l-6.91-12.13Z"/>
          <path class="cls-1" d="m584.9,123.11h3.81l8.97,26.52h-3.57l-4.62-14.81c-.95-2.96-1.8-5.88-2.65-8.94h-.16c-.82,3.08-1.67,5.97-2.62,8.94l-4.67,14.81h-3.43l8.97-26.52Zm-4.25,15.75h12.21v2.69h-12.21v-2.69Z"/>
          <path class="cls-1" d="m605.4,125.99h-8.02v-2.86h19.42v2.86h-8.02v23.66h-3.37v-23.66Z"/>
          <path class="cls-1" d="m621.59,123.22h15.28v2.86h-11.91v8.31h10.05v2.86h-10.05v9.64h12.31v2.86h-15.69v-26.52Z"/>
          <path class="cls-1" d="m641.13,154.56c2.28-1,3.65-2.79,3.64-5.01l-.36-2.98,1.63,2.43c-.44.54-1.05.69-1.68.69-1.28,0-2.41-.81-2.41-2.32s1.14-2.32,2.47-2.32c1.76,0,2.82,1.47,2.82,3.9,0,3.49-2.03,6.21-5.29,7.56l-.81-1.95Z"/>
          <path class="cls-1" d="m661.01,123.17h3.37v26.52h-3.37v-26.52Z"/>
          <path class="cls-1" d="m671.71,123.17h3.49l9.6,16.67,2.86,5.49h.16c-.17-2.67-.43-5.66-.43-8.44v-13.72h3.2v26.52h-3.49l-9.6-16.69-2.86-5.47h-.16c.17,2.68.43,5.51.43,8.28v13.88h-3.2v-26.52Z"/>
          <path class="cls-1" d="m696,146.17l2.02-2.32c1.91,1.98,4.56,3.29,7.32,3.29,3.48,0,5.54-1.73,5.54-4.31,0-2.71-1.92-3.57-4.42-4.66l-3.81-1.68c-2.47-1.05-5.37-2.93-5.37-6.83s3.53-7.04,8.35-7.04c3.14,0,5.95,1.36,7.81,3.28l-1.79,2.17c-1.62-1.53-3.57-2.49-6.02-2.49-2.97,0-4.94,1.5-4.94,3.87,0,2.55,2.31,3.51,4.39,4.39l3.78,1.64c3.07,1.32,5.46,3.15,5.46,7.09,0,4.19-3.46,7.54-9.04,7.54-3.72,0-6.96-1.52-9.27-3.94Z"/>
          <path class="cls-1" d="m719.6,123.17h7.57c5.94,0,9.95,2,9.95,7.81s-3.99,8.19-9.79,8.19h-4.36v10.52h-3.37v-26.52Zm7.31,13.26c4.64,0,6.85-1.68,6.85-5.45s-2.35-5.07-7.01-5.07h-3.77v10.52h3.93Z"/>
          <path class="cls-1" d="m742.71,123.17h3.37v26.52h-3.37v-26.52Z"/>
          <path class="cls-1" d="m753.35,123.17h8.3c5.4,0,9.28,1.94,9.28,7.46s-3.88,7.85-9.28,7.85h-4.93v11.21h-3.37v-26.52Zm7.82,12.57c4.13,0,6.4-1.67,6.4-5.11s-2.27-4.73-6.4-4.73h-4.45v9.83h4.45Zm-.18,1.81l2.64-1.75,8.09,13.88h-3.82l-6.91-12.13Z"/>
          <path class="cls-1" d="m776.76,123.17h15.28v2.86h-11.91v8.31h10.05v2.86h-10.05v9.64h12.31v2.86h-15.69v-26.52Z"/>
          <path class="cls-1" d="m797.06,147.66c0-1.53,1.08-2.57,2.41-2.57s2.41,1.04,2.41,2.57-1.08,2.52-2.41,2.52-2.41-1.04-2.41-2.52Z"/>
        </g>
      </g>
    </g>
  </g>
</svg>