<?xml version="1.0" encoding="UTF-8"?>
<svg id="Layer_1" data-name="Layer 1" xmlns="http://www.w3.org/2000/svg" version="1.1" viewBox="0 0 35 35">
  <defs>
    <style>
      .cls-1 {
        fill: #000;
        stroke-width: 0px;
      }
    </style>
  </defs>
  <g id="Layer_1-2" data-name="Layer 1-2">
    <path id="Logo" class="cls-1" d="M.3,14c0-.1,0-.3,0-.5,2-3.5,4-7,6.1-10.5.2-.4.5-.6,1-.6,2.4,0,4.7,0,7.1,0,.5,0,.8.2,1,.6,2.4,4.2,4.7,8.3,7.1,12.5.3.6.8.9,1.5.9.8,0,1.5,0,2.2,0-2.7-4.7-5.3-9.2-7.9-13.9,2.5-.1,5,0,7.5-.2.7,0,1.4,0,2.1,0,.4.2.7.5.9.9.5,1,1,1.9,1.6,2.8,1.4,2.5,2.7,4.9,4.1,7.4.3.5.2.9,0,1.4-1,1.8-2.1,3.6-3.1,5.4-.4.7-1,.6-1.7.6-4.6,0-9.3,0-13.9,0-.6,0-1,.3-1.3.9,0,.1-.1.2-.2.4-.3.6-.5,1.1-.8,1.8h15.8c-1.5,2.9-3.3,5.7-4.9,8.6-.2.4-.6.6-1.1.6-3.8,0-7.5,0-11.3,0-.5,0-.9-.2-1.1-.7-1.2-2.1-2.4-4.3-3.6-6.4-.2-.4-.2-.8,0-1.3,1.8-3,3.7-6,5.5-9.1.6-1,1.3-2.1,1.9-3.1.3-.6.6-1.2.3-1.8-.3-.7-.7-1.3-1.1-2.1-2.8,4.7-5.6,9.3-8.5,14-1.7-2.8-3.3-5.6-5-8.4Z"/>
  </g>
</svg>